<?xml version="1.0" encoding="UTF-8" standalone="no"?>
<!-- Created with Inkscape (http://www.inkscape.org/) -->

<svg
   width="128.0px"
   height="128.0px"
   viewBox="0 0 128.0 128.0"
   version="1.1"
   id="SVGRoot"
   sodipodi:docname="icon_cal.svg"
   inkscape:version="1.1.2 (0a00cf5339, 2022-02-04, custom)"
   xmlns:inkscape="http://www.inkscape.org/namespaces/inkscape"
   xmlns:sodipodi="http://sodipodi.sourceforge.net/DTD/sodipodi-0.dtd"
   xmlns="http://www.w3.org/2000/svg"
   xmlns:svg="http://www.w3.org/2000/svg">
  <sodipodi:namedview
     id="namedview1236"
     pagecolor="#505050"
     bordercolor="#eeeeee"
     borderopacity="1"
     inkscape:pageshadow="0"
     inkscape:pageopacity="0"
     inkscape:pagecheckerboard="0"
     inkscape:document-units="px"
     showgrid="true"
     inkscape:zoom="4.1373683"
     inkscape:cx="37.342579"
     inkscape:cy="44.956114"
     inkscape:window-width="1920"
     inkscape:window-height="1007"
     inkscape:window-x="0"
     inkscape:window-y="0"
     inkscape:window-maximized="1"
     inkscape:current-layer="layer1">
    <inkscape:grid
       type="xygrid"
       id="grid1299" />
  </sodipodi:namedview>
  <defs
     id="defs1231" />
  <g
     inkscape:label="Layer 1"
     inkscape:groupmode="layer"
     id="layer1">
    <polygon
       style="fill:#bbbcbb"
       points="390.247,127.104 384.559,167.709 382.531,167.302 381.315,125.076 385.356,121.136 "
       id="polygon11384"
       transform="matrix(0.15179802,0,0,0.15179802,57.117138,31.013711)" />
    <polygon
       style="fill:#aeacac"
       points="383.216,166.086 94.12,166.231 109.372,342.158 404.739,342.012 "
       id="polygon11386"
       transform="matrix(0.15179802,0,0,0.15179802,57.117138,31.013711)" />
    <polygon
       style="fill:#d32027"
       points="383.209,166.086 94.12,166.231 96.257,121.282 385.356,121.136 "
       id="polygon11388"
       transform="matrix(0.15179802,0,0,0.15179802,57.117138,31.013711)" />
    <polygon
       style="fill:#bbbcbb"
       points="383.216,166.086 94.12,166.231 99.931,353.675 389.031,353.533 "
       id="polygon11390"
       transform="matrix(0.15179802,0,0,0.15179802,57.117138,31.013711)" />
    <polygon
       style="fill:#ebedef"
       points="343.553,314.824 368.073,317.066 383.216,166.086 94.12,166.231 84.238,345.402 331.647,345.278 "
       id="polygon11392"
       transform="matrix(0.15179802,0,0,0.15179802,57.117138,31.013711)" />
    <g
       id="g11398"
       transform="matrix(0.15179802,0,0,0.15179802,57.117138,31.013711)">
      <path
         style="fill:#626463"
         d="M 231.263,298.394 H 161.49 c 0.797,-6.889 3.229,-13.369 7.281,-19.442 4.052,-6.073 11.652,-13.238 22.806,-21.496 6.814,-5.063 11.173,-8.905 13.074,-11.536 1.908,-2.627 2.859,-5.119 2.859,-7.48 0,-2.552 -0.939,-4.73 -2.821,-6.541 -1.886,-1.807 -4.262,-2.713 -7.113,-2.713 -2.971,0 -5.392,0.935 -7.278,2.799 -1.882,1.867 -3.151,5.156 -3.802,9.878 L 163.2,239.981 c 0.913,-6.548 2.589,-11.656 5.025,-15.33 2.436,-3.674 5.875,-6.488 10.312,-8.449 4.434,-1.961 10.567,-2.941 18.409,-2.941 8.187,0 14.555,0.935 19.102,2.799 4.546,1.863 8.127,4.73 10.731,8.591 2.608,3.865 3.91,8.191 3.91,12.988 0,5.104 -1.489,9.976 -4.479,14.619 -2.986,4.643 -8.426,9.744 -16.299,15.304 -4.685,3.233 -7.813,5.5 -9.396,6.795 -1.579,1.291 -3.435,2.986 -5.568,5.081 h 36.314 z"
         id="path11394" />
      <path
         style="fill:#626463"
         d="m 308.516,233.531 -23.128,2.855 c -0.61,-3.237 -1.624,-5.519 -3.05,-6.851 -1.426,-1.332 -3.192,-1.998 -5.283,-1.998 -3.768,0 -6.702,1.901 -8.793,5.706 -1.523,2.739 -2.645,8.602 -3.371,17.586 2.78,-2.818 5.639,-4.902 8.565,-6.252 2.934,-1.351 6.32,-2.028 10.166,-2.028 7.457,0 13.773,2.664 18.93,7.992 5.16,5.328 7.734,12.086 7.734,20.269 0,5.519 -1.302,10.563 -3.906,15.132 -2.608,4.569 -6.223,8.022 -10.851,10.365 -4.621,2.339 -10.421,3.51 -17.384,3.51 -8.374,0 -15.094,-1.426 -20.157,-4.284 -5.066,-2.855 -9.107,-7.412 -12.131,-13.672 -3.023,-6.26 -4.539,-14.552 -4.539,-24.868 0,-15.113 3.177,-26.181 9.534,-33.201 6.357,-7.023 15.169,-10.537 26.436,-10.537 6.657,0 11.929,0.771 15.786,2.312 3.865,1.542 7.072,3.798 9.62,6.765 2.544,2.978 4.49,6.709 5.822,11.199 z m -42.821,37.286 c 0,4.528 1.141,8.078 3.424,10.649 2.282,2.571 5.081,3.854 8.393,3.854 3.042,0 5.594,-1.164 7.648,-3.484 2.058,-2.324 3.083,-5.785 3.083,-10.391 0,-4.718 -1.063,-8.314 -3.195,-10.791 -2.129,-2.477 -4.774,-3.712 -7.936,-3.712 -3.233,0 -5.942,1.197 -8.131,3.596 -2.189,2.399 -3.286,5.823 -3.286,10.279 z"
         id="path11396" />
    </g>
    <polygon
       style="fill:#aeacac"
       points="343.553,314.824 367.916,316.448 330.293,345.26 "
       id="polygon11400"
       transform="matrix(0.15179802,0,0,0.15179802,57.117138,31.013711)" />
    <g
       id="g11402"
       transform="matrix(0.15179802,0,0,0.15179802,53.495129,26.33439)" />
    <g
       id="g11404"
       transform="matrix(0.15179802,0,0,0.15179802,53.495129,26.33439)" />
    <g
       id="g11406"
       transform="matrix(0.15179802,0,0,0.15179802,53.495129,26.33439)" />
    <g
       id="g11408"
       transform="matrix(0.15179802,0,0,0.15179802,53.495129,26.33439)" />
    <g
       id="g11410"
       transform="matrix(0.15179802,0,0,0.15179802,53.495129,26.33439)" />
    <g
       id="g11412"
       transform="matrix(0.15179802,0,0,0.15179802,53.495129,26.33439)" />
    <g
       id="g11414"
       transform="matrix(0.15179802,0,0,0.15179802,53.495129,26.33439)" />
    <g
       id="g11416"
       transform="matrix(0.15179802,0,0,0.15179802,53.495129,26.33439)" />
    <g
       id="g11418"
       transform="matrix(0.15179802,0,0,0.15179802,53.495129,26.33439)" />
    <g
       id="g11420"
       transform="matrix(0.15179802,0,0,0.15179802,53.495129,26.33439)" />
    <g
       id="g11422"
       transform="matrix(0.15179802,0,0,0.15179802,53.495129,26.33439)" />
    <g
       id="g11424"
       transform="matrix(0.15179802,0,0,0.15179802,53.495129,26.33439)" />
    <g
       id="g11426"
       transform="matrix(0.15179802,0,0,0.15179802,53.495129,26.33439)" />
    <g
       id="g11428"
       transform="matrix(0.15179802,0,0,0.15179802,53.495129,26.33439)" />
    <g
       id="g11430"
       transform="matrix(0.15179802,0,0,0.15179802,53.495129,26.33439)" />
  </g>
  <g
     inkscape:groupmode="layer"
     id="layer2"
     inkscape:label="text">
    <g
       aria-label="IC"
       id="text20041"
       style="font-size:102.667px;line-height:1.25"
       transform="translate(2.16659,-1.537394)">
      <path
         d="M 40.697468,102.44961 H 14.209382 V 97.110924 L 22.83341,95.160251 V 36.537394 l -8.624028,-2.05334 V 29.14537 h 26.488086 v 5.338684 l -8.624028,2.05334 v 58.622857 l 8.624028,1.950673 z"
         id="path23483" />
      <path
         d="m 86.281687,36.229393 q -11.806705,0 -18.582727,7.905359 -6.776022,7.905359 -6.776022,21.662737 0,13.654711 6.262687,21.662737 6.365354,7.905359 18.993395,7.905359 4.825349,0 9.137363,-0.821336 4.312014,-0.821336 8.418697,-2.05334 v 8.008021 q -4.106683,1.54001 -8.521364,2.25868 -4.312014,0.71867 -10.369367,0.71867 -11.190703,0 -18.685394,-4.620017 -7.494691,-4.620015 -11.29337,-13.141376 -3.696012,-8.521361 -3.696012,-20.020065 0,-11.088036 4.004013,-19.50673 4.10668,-8.521361 12.012039,-13.244043 7.905359,-4.825349 19.198729,-4.825349 11.601371,0 20.225396,4.312014 l -3.69601,7.802692 q -3.38801,-1.540005 -7.597357,-2.772009 -4.10668,-1.232004 -9.034696,-1.232004 z"
         id="path23485" />
    </g>
  </g>
</svg>
